<?xml version="1.0" encoding="utf-8" ?>
<svg xmlns="http://www.w3.org/2000/svg" xmlns:xlink="http://www.w3.org/1999/xlink" width="761" height="380">
	<path fill="#FEFEFE" transform="scale(0.371679 0.371679)" d="M0 0L1465.41 0L2046.25 0C2048.13 2.86542 2047.93 5.75437 2047.97 9.02842C2048.68 62.0739 2048.01 115.231 2048.02 168.287L2048.02 484.287L2048 623.105C2048 637.014 2049.7 667.003 2047.73 678.589C2047.51 679.836 2046.94 680.981 2046.27 682.039C2049.42 687.084 2049.16 704.339 2047.57 710.218C2047.31 711.192 2046.79 712.12 2046.26 712.971C2047.76 715.433 2047.9 717.581 2047.95 720.385C2049.47 794.779 2048.04 869.517 2048.02 943.944C2048.02 957.218 2049.53 1013.85 2047.58 1021.07C2047.3 1022.12 2046.82 1023.08 2046.25 1024L0 1024L0 712.711L0 681.991L0 0Z"/>
	<path transform="scale(0.371679 0.371679)" d="M135.579 928.028L161.941 928.055C161.968 936.605 161.495 945.478 162.156 953.984L135.829 953.804C135.774 945.231 135.943 936.592 135.579 928.028Z"/>
	<path transform="scale(0.371679 0.371679)" d="M704.02 701.973L733.822 701.882L733.821 728.84L703.999 728.859L704.02 701.973Z"/>
	<path transform="scale(0.371679 0.371679)" d="M767.263 701.638C782.481 701.392 797.745 701.672 812.967 701.708L812.931 728.78L767.319 728.699L767.263 701.638Z"/>
	<path transform="scale(0.371679 0.371679)" d="M1315.49 701.498C1330.66 699.99 1346.95 701.165 1362.24 701.296C1363.14 702.709 1363.47 703.97 1363.71 705.626C1364.58 711.786 1365.25 723.544 1361.59 728.501C1351.01 730.868 1326.44 728.933 1314.35 728.849C1317.79 723.738 1316.45 707.639 1315.49 701.498Z"/>
	<path transform="scale(0.371679 0.371679)" d="M944.393 701.336C960.99 700.903 977.656 701.152 994.261 701.098L994.218 728.798L944.345 728.607L944.393 701.336Z"/>
	<path fill="#0EDEFE" transform="scale(0.371679 0.371679)" d="M1548.27 682.111C1551.68 686.9 1550.96 700.649 1549.92 706.463C1549.69 707.733 1549.11 708.889 1548.44 709.976L1496.43 709.938C1499.23 705.112 1498.93 691.02 1497.59 685.415C1497.4 684.611 1497.04 683.841 1496.66 683.111C1513.01 680.747 1531.7 682.296 1548.27 682.111Z"/>
	<path transform="scale(0.371679 0.371679)" d="M1027.18 701.493L1089.32 701.629C1091.28 704.525 1091.1 708.406 1091.22 711.8C1091.4 717.303 1092.28 724.373 1088.43 728.503C1067.48 728.942 1046.48 728.42 1025.53 728.182C1029.01 722.787 1027.24 708.155 1027.18 701.493Z"/>
	<path transform="scale(0.371679 0.371679)" d="M846.668 701.282L911.102 701.24L911.106 728.756L846.665 728.704L846.668 701.282Z"/>
	<path transform="scale(0.371679 0.371679)" d="M1219.91 701.498C1240.64 699.853 1262.41 701.198 1283.24 701.321C1283.31 701.472 1283.39 701.625 1283.47 701.775C1284.01 702.826 1284.49 703.842 1284.67 705.025C1285.58 711.186 1286.26 723.356 1282.71 728.502C1270.78 730.766 1232.88 728.865 1218.56 728.786C1222.08 723.532 1220.58 707.875 1219.91 701.498Z"/>
	<path transform="scale(0.371679 0.371679)" d="M1122.59 701.495C1142.8 699.26 1165.9 701.138 1186.39 701.22C1188.5 704.343 1188.18 709.253 1188.27 712.945C1188.39 718.261 1189.17 724.546 1185.37 728.501C1168.1 730.528 1139.74 728.811 1121.38 728.794C1124.89 723.588 1123.43 707.773 1122.59 701.495Z"/>
	<path transform="scale(0.371679 0.371679)" d="M1708.8 523.078L1739.12 523.093C1742.17 528.222 1741.71 544.679 1740.24 550.629C1740.04 551.438 1739.64 552.224 1739.25 552.951C1739.7 553.747 1740.06 554.577 1740.25 555.476C1741.67 561.972 1741.87 601.269 1739.1 605.764C1728.76 606.179 1718.26 605.888 1707.91 605.936C1710.2 602.208 1710.28 529.631 1708.8 523.078Z"/>
	<path transform="scale(0.371679 0.371679)" d="M1646.75 489.499C1656.65 488.365 1667.2 489.078 1677.18 489.089C1677.8 490.141 1678.33 491.254 1678.51 492.471C1680.56 505.766 1678.91 523.45 1678.92 537.164C1678.95 558.048 1680.56 580.398 1678.69 601.138C1678.56 602.674 1678.07 603.791 1677.2 605.059C1673.41 607.345 1651.83 605.813 1646.29 605.768C1649.04 599.086 1648.79 498.045 1646.75 489.499Z"/>
	<path transform="scale(0.371679 0.371679)" d="M1250.71 756.497C1265.87 754.593 1282.6 756.027 1297.95 756.041L1393.48 756.058C1393.56 756.222 1393.64 756.388 1393.73 756.55C1394.19 757.417 1394.67 758.317 1394.9 759.28C1396.41 765.588 1396.56 778.546 1392.98 783.931C1345.38 785.331 1297.37 784.067 1249.73 784.042C1252.96 779.262 1251.78 762.26 1250.71 756.497Z"/>
	<path fill="#0EDEFE" transform="scale(0.371679 0.371679)" d="M0 681.991L107.379 682.132C125.495 682.158 143.95 681.415 162.016 682.339L162.065 712.612L0 712.711L0 681.991Z"/>
	<path fill="#0EDEFE" transform="scale(0.371679 0.371679)" d="M1858.61 682.016L1985.58 682.376C2005.52 682.368 2026.48 683.604 2046.27 682.039C2049.42 687.084 2049.16 704.339 2047.57 710.218C2047.31 711.192 2046.79 712.12 2046.26 712.971C1983.67 711.967 1920.83 713.688 1858.19 713.676C1858.29 713.499 1858.39 713.326 1858.48 713.145C1861.54 706.866 1860.77 688.433 1858.61 682.016Z"/>
	<path fill="#A3A3A3" transform="scale(0.371679 0.371679)" d="M868.496 238.002C938.418 237.216 1008.45 237.994 1078.38 238.052C1078.93 238.92 1079.43 239.842 1079.7 240.842C1080.82 244.988 1081.09 293.282 1079.8 296.928C1079.5 297.773 1078.64 298.826 1078.16 299.618C1067.71 301.924 1036.96 299.881 1024.26 299.896L868.224 299.964L868.496 238.002Z"/>
	<path fill="#A3A3A3" transform="scale(0.371679 0.371679)" d="M597.038 238.204C667.885 236.772 739.035 238.091 809.914 238.109C810.447 258.665 810.002 279.35 809.994 299.919L596.864 299.916L597.038 238.204Z"/>
	<path fill="#A3A3A3" transform="scale(0.371679 0.371679)" d="M1139.39 238.495C1162.64 236.197 1187.57 237.944 1211 237.957L1351.33 238.061C1352 239.135 1352.55 240.29 1352.81 241.539C1353.92 246.936 1354.31 292.798 1352.83 296.925C1352.52 297.791 1351.63 298.865 1351.13 299.674C1341.37 301.929 1303.98 299.952 1291.89 299.922L1138.16 299.981C1141.54 294.482 1140.93 246.524 1139.39 238.495Z"/>
	<path transform="scale(0.371679 0.371679)" d="M703.958 755.87L1219.19 756.031C1220.57 758.214 1220.82 760 1220.98 762.494C1221.3 767.499 1222.54 779.74 1219.19 783.573C1211.53 785.706 1192.4 784.128 1183.6 784.12L1098.59 784.053L703.94 784.145L703.958 755.87Z"/>
	<path transform="scale(0.371679 0.371679)" d="M704.074 655.922L1440.61 655.862C1444.28 661.192 1443.32 669.6 1442.59 675.9C1441.81 676.99 1441.37 677.636 1440.16 678.289L900.651 678.203C835.124 678.11 769.6 679.422 704.076 678.319L704.074 655.922Z"/>
	<path transform="scale(0.371679 0.371679)" d="M597.067 153.977L1350.28 153.915C1350.83 154.733 1351.29 155.61 1351.51 156.58C1352.56 161.279 1352.8 172.105 1350.19 176.232C1345.93 178.73 660.223 177.079 596.968 177.033L597.067 153.977Z"/>
	<path fill="#A3A3A3" transform="scale(0.371679 0.371679)" d="M596.362 363.934C666.44 362.938 736.658 363.77 806.751 363.716L807.023 510.759Q755.689 510.893 704.356 510.408C704.401 503.911 704.183 497.396 704.068 490.899L596.675 490.89C597.192 448.578 596.273 406.252 596.362 363.934Z"/>
	<path fill="#A3A3A3" transform="scale(0.371679 0.371679)" d="M1067.23 363.5L1078.74 363.469C1078.93 363.912 1078.99 364.024 1079.16 364.531C1081.21 370.758 1080.69 493.066 1079.9 505.926C1079.79 507.73 1079.33 509.176 1078.52 510.786C1012.31 511.889 945.903 510.62 879.667 510.51L868.49 510.607L868.49 363.945C934.646 363.295 1001.16 365.686 1067.23 363.5Z"/>
	<path fill="#A3A3A3" transform="scale(0.371679 0.371679)" d="M1140.19 363.5C1210.36 361.982 1280.85 363.351 1351.04 363.389C1354.32 368.232 1352.83 484.621 1352.73 499.935C1352.7 504.05 1353.24 507.289 1350.2 510.295C1279.73 511.464 1209.12 510.595 1138.64 510.595C1142.48 504.502 1139 383.609 1140.19 363.5Z"/>
	<path transform="scale(0.371679 0.371679)" d="M1578.75 637.499C1605.32 635.438 1635.42 637.163 1662.33 637.207L1825.44 637.49C1825.88 638.366 1826.25 639.195 1826.46 640.158C1828.62 649.995 1826.96 690.867 1826.96 704.176L1826.93 798.21C1826.92 814.719 1827.43 831.435 1826.76 847.92C1826.67 850.249 1826.38 851.951 1825.16 853.999L1803.02 853.973C1799.81 855.654 1801.95 872.355 1799.56 876.936L1615.05 876.989C1615.67 876.062 1616.18 875.066 1616.45 873.973C1617.62 869.048 1617.83 858.348 1615.22 853.939L1577.64 853.968C1578.77 852.146 1578.99 850.507 1579.07 848.406C1580.75 804.399 1579.12 759.693 1579 715.63L1579.06 666.872C1579.1 657.188 1579.7 647.135 1578.75 637.499Z"/>
	<path transform="scale(0.371679 0.371679)" d="M989.436 27.9926L1438.32 27.9846C1441.37 32.8421 1441.21 48.4683 1439.68 54.1831C1439.41 55.1565 1438.93 56.0711 1438.41 56.9289C1447.52 56.9624 1457.82 56.0097 1466.77 57.3657C1467.09 64.0893 1469.08 77.9345 1465.4 83.7754C1473.19 83.8154 1481.16 83.4884 1488.92 83.9394C1490.59 86.6836 1490.51 88.0067 1490.62 91.1549C1492.07 135.15 1490.28 179.752 1490.29 223.82C1490.29 236.024 1491.96 292.535 1489.83 300.587C1489.59 301.503 1489.21 302.342 1488.74 303.163C1489.86 306.496 1490.41 308.369 1488.86 311.836C1492.12 320.456 1490.13 477.914 1490.13 499.807C1490.13 527.582 1491.15 555.632 1490.37 583.367C1490.3 585.856 1490.32 588.496 1489.23 590.788C1489.17 590.916 1489.1 591.04 1489.03 591.166C1484.42 593.734 1470.51 592.048 1464.84 592.004C1465.34 592.882 1465.78 593.794 1466.04 594.772C1467.56 600.348 1467.77 613.76 1465.05 618.747L1440.39 618.781C1440.86 619.505 1441.27 620.26 1441.53 621.09C1442.88 625.508 1442.33 631.193 1440.25 635.259L704.057 635.079L704.057 589.17L1423.38 588.836C1423.98 587.953 1424.5 587.012 1424.71 585.955C1425.85 580.2 1426.44 567.534 1423.49 562.555L1449.24 562.442C1449.66 561.83 1449.98 561.246 1450.26 560.557C1451.74 556.977 1452.15 156.04 1450.84 114.617C1450.77 112.271 1450.44 110.494 1449.45 108.353L1422.83 108.268C1423.51 107.27 1424.08 106.195 1424.34 105.012C1425.56 99.6453 1425.89 87.767 1423.13 82.9873L989.645 82.9122L989.564 53.9521L989.436 27.9926Z"/>
	<path transform="scale(0.371679 0.371679)" d="M704.01 833.953L1291.97 833.8C1377.38 833.877 1462.94 832.765 1548.33 833.934C1550.93 838.114 1550.98 848.73 1549.77 853.418C1549.52 854.407 1549.12 855.229 1548.56 856.072L1573.5 856.067C1575.48 860.779 1576.21 871.301 1574.28 876.074C1573.98 876.821 1573.64 877.496 1573.23 878.187C1579.42 878.085 1587.34 876.791 1593.1 879.131C1594.57 881.214 1594.86 881.879 1594.41 884.563C1594.17 885.986 1593.39 887.702 1592.78 889.002C1594.78 892.798 1595.22 895.902 1593.94 900.04C1593.7 900.817 1593.4 901.501 1592.99 902.201L1616.48 902.23C1618.6 906.966 1619.24 919.347 1617.26 924.067C1616.97 924.772 1616.64 925.381 1616.21 926.012L1640.34 925.984C1643.12 930.446 1642.95 942.91 1641.67 948.091C1641.46 948.933 1641.1 949.731 1640.7 950.498C1648.1 950.547 1655.92 950.058 1663.26 950.721C1666.52 956.317 1666.29 974.853 1664.58 981.227C1664.33 982.189 1663.8 983.117 1663.28 983.957L162.202 983.9C162.276 973.998 162.814 963.859 162.156 953.984L703.076 954.15L703.151 925.822L725.885 925.67L725.914 900.973L749.405 900.953C749.471 884.721 749.344 868.464 749.649 852.237L704.011 852.355L704.01 833.953Z"/>
	<path transform="scale(0.371679 0.371679)" d="M194.052 520.966L671.343 520.946L671.369 923.746L193.871 923.625L194.052 520.966Z"/>
	<path fill="#FEFEFE" transform="scale(0.371679 0.371679)" d="M224.099 549.967L641.106 549.954L640.988 893.2L223.957 893.307L224.099 549.967Z"/>
	<path transform="scale(0.371679 0.371679)" d="M256.237 580.877L319.177 580.843L319.16 610.013L256.48 610.006L256.237 580.877Z"/>
	<path transform="scale(0.371679 0.371679)" d="M352.002 580.972L608.772 580.776L608.785 610.084C523.285 611.542 437.477 610.084 351.947 610.047L352.002 580.972Z"/>
	<path transform="scale(0.371679 0.371679)" d="M257.003 640.021L608.64 640.084Q608.7 655.48 608.511 670.875L256.938 670.964L257.003 640.021Z"/>
	<path transform="scale(0.371679 0.371679)" d="M256.761 701.959L608.654 701.837L608.865 862.122L256.256 861.929L256.761 701.959Z"/>
	<path fill="#0095FF" transform="scale(0.371679 0.371679)" d="M0 0L1465.41 0L2046.25 0C2048.13 2.86542 2047.93 5.75437 2047.97 9.02842C2048.68 62.0739 2048.01 115.231 2048.02 168.287L2048.02 484.287L2048 623.105C2048 637.014 2049.7 667.003 2047.73 678.589C2047.51 679.836 2046.94 680.981 2046.27 682.039C2026.48 683.604 2005.52 682.368 1985.58 682.376L1858.61 682.016C1858.75 681.698 1858.95 681.253 1859.04 680.901C1860.82 674.044 1860.37 611.122 1857.7 605.903L1801.27 605.692C1790.73 606.439 1779.72 605.857 1769.13 605.845C1769.24 605.672 1769.35 605.507 1769.44 605.327C1772.34 599.597 1771.76 560.918 1769.51 554.967L1769.44 553.558C1764 550.752 1745.62 552.748 1739.25 552.951C1739.64 552.224 1740.04 551.438 1740.24 550.629C1741.71 544.679 1742.17 528.222 1739.12 523.093L1708.8 523.078C1710.61 517.269 1711.23 463.857 1708.85 459.154C1708.6 458.641 1708.5 458.521 1708.2 458.088L1616.41 458.056C1617.21 459.725 1617.67 461.239 1617.78 463.096C1618.51 475.907 1618.93 598.611 1617.11 603.139C1616.84 603.827 1616.49 604.463 1616.09 605.086L1548.54 605.162C1551.07 609.306 1551.34 671.171 1549.89 678.473C1549.63 679.795 1549.01 681 1548.27 682.111C1531.7 682.296 1513.01 680.747 1496.66 683.111C1491.69 679.719 1454.63 683.962 1443.77 681.247C1442.83 680.042 1441.94 679.391 1440.64 678.58L1440.16 678.289C1441.37 677.636 1441.81 676.99 1442.59 675.9C1443.32 669.6 1444.28 661.192 1440.61 655.862C1444.73 652.054 1459.33 653.731 1465.13 653.819C1465.21 653.661 1465.29 653.502 1465.37 653.345C1465.81 652.508 1466.27 651.637 1466.49 650.709C1467.99 644.265 1468.49 624.504 1465 618.947L1489.23 618.903C1489.71 618.189 1490.17 617.417 1490.41 616.587C1492.09 610.952 1491.89 597.284 1489.29 592.132L1516.04 592.065C1516.4 591.531 1516.7 590.999 1516.96 590.404C1518.88 585.933 1518.18 572.6 1516.37 568.013C1513 565.02 1494.31 566.59 1488.69 566.649C1491.67 571.438 1491.54 582.923 1490.38 588.436C1490.17 589.448 1489.64 590.342 1489.03 591.166C1489.1 591.04 1489.17 590.916 1489.23 590.788C1490.32 588.496 1490.3 585.856 1490.37 583.367C1491.15 555.632 1490.13 527.582 1490.13 499.807C1490.13 477.914 1492.12 320.456 1488.86 311.836C1490.41 308.369 1489.86 306.496 1488.74 303.163C1489.21 302.342 1489.59 301.503 1489.83 300.587C1491.96 292.535 1490.29 236.024 1490.29 223.82C1490.28 179.752 1492.07 135.15 1490.62 91.1549C1490.51 88.0067 1490.59 86.6836 1488.92 83.9394C1481.16 83.4884 1473.19 83.8154 1465.4 83.7754C1469.08 77.9345 1467.09 64.0893 1466.77 57.3657C1457.82 56.0097 1447.52 56.9624 1438.41 56.9289C1438.93 56.0711 1439.41 55.1565 1439.68 54.1831C1441.21 48.4683 1441.37 32.8421 1438.32 27.9846L989.436 27.9926L989.564 53.9521L960.772 54.0499L960.892 82.89L519.002 82.9624L518.991 110.086L496.921 110.16L496.971 490.915C484.426 490.903 471.556 491.478 459.051 490.727C449.941 490.044 440.547 490.443 431.402 490.387L161.962 490.643L162.016 682.339C143.95 681.415 125.495 682.158 107.379 682.132L0 681.991L0 0Z"/>
	<path fill="#FEFEFE" transform="scale(0.371679 0.371679)" d="M1467.58 56.8471C1474.73 56.8317 1482.77 56.0779 1489.79 57.1064C1492.84 60.3897 1491.94 70.5213 1491.77 74.9149C1491.68 77.1577 1491.95 81.0439 1490.45 82.7831C1490.06 83.2402 1489.41 83.6175 1488.92 83.9394C1481.16 83.4884 1473.19 83.8154 1465.4 83.7754C1469.08 77.9345 1467.09 64.0893 1466.77 57.3657L1467.58 56.8471Z"/>
	<path fill="#0EDEFE" transform="scale(0.371679 0.371679)" d="M1488.74 303.163C1495.05 303.121 1512.56 301.524 1517.62 303.881C1518.24 312.882 1518.85 323.008 1517.38 331.901C1508.1 332.679 1498.33 332.094 1488.99 332.116C1490.87 329.394 1491.05 326.202 1491.15 322.987C1491.28 319.381 1491.48 314.63 1488.86 311.836C1490.41 308.369 1489.86 306.496 1488.74 303.163Z"/>
	<path transform="scale(0.371679 0.371679)" d="M1769.51 554.967C1774.48 550.712 1794.57 552.923 1801.57 553.043C1803.98 557.899 1804.74 598.1 1802.88 603.019C1802.51 604.017 1801.94 604.868 1801.27 605.692C1790.73 606.439 1779.72 605.857 1769.13 605.845C1769.24 605.672 1769.35 605.507 1769.44 605.327C1772.34 599.597 1771.76 560.918 1769.51 554.967Z"/>
	<path fill="#0EDEFE" transform="scale(0.371679 0.371679)" d="M1987.46 303.336C1987.85 302.761 1988.21 302.183 1988.48 301.538C1990.27 297.358 1990.2 287.25 1988.47 283.036C1991.06 287.035 1991.02 296.374 1989.76 300.863C1989.51 301.744 1989.18 302.274 1988.69 303.037L2017.23 303.126C2020.73 308.012 2019.87 322.512 2018.81 328.468C2018.58 329.794 2017.98 330.989 2017.28 332.127L1987.45 332.184C1977.89 330.785 1967.02 331.821 1957.31 331.844C1957.97 331.027 1958.58 330.138 1958.93 329.137C1960.79 323.728 1960.45 308.07 1957.79 303.194L1987.46 303.336Z"/>
	<path transform="scale(0.371679 0.371679)" d="M511.998 27.9683L934.905 28.0178L934.875 54.058L960.772 54.0499L960.892 82.89L519.002 82.9624L518.991 110.086L496.921 110.16L496.971 490.915C484.426 490.903 471.556 491.478 459.051 490.727L459.034 301.51L459.059 159.186C459.073 133.623 460.136 107.545 458.791 82.0451C456.758 74.6363 458.345 62.876 458.647 55.1051Q471.901 54.772 485.158 54.9702Q485.104 45.5152 484.812 36.0645C484.767 33.7693 484.68 31.9104 485.521 29.7223C490.811 25.6209 505.336 27.9162 511.998 27.9683Z"/>
	<path fill="#FEFEFE" transform="scale(0.371679 0.371679)" d="M458.647 55.1051Q471.901 54.772 485.158 54.9702Q485.278 68.5018 485.254 82.0339L458.791 82.0451C456.758 74.6363 458.345 62.876 458.647 55.1051Z"/>
	<path fill="#FEFEFE" transform="scale(0.371679 0.371679)" d="M484.812 36.0645C484.767 33.7693 484.68 31.9104 485.521 29.7223C490.811 25.6209 505.336 27.9162 511.998 27.9683L512.004 55.0222L485.158 54.9702Q485.104 45.5152 484.812 36.0645Z"/>
	<path fill="#FEFEFE" transform="scale(0.371679 0.371679)" d="M218.78 121.658C252.463 120.631 286.38 121.273 320.086 121.214L320.076 146.947L348.026 147.042L348.148 172.886L374.74 172.945L374.729 198.92L401.833 198.955L402.017 301.973L402.167 332.306L373.472 332.217L69.9989 332.182L44.014 332.118L43.9959 275.236C53.0057 274.938 62.0731 275.117 71.0901 275.092L71.2852 248.887L102.336 248.882L102.365 224.17L131.385 224.114L131.533 199.111L160.038 199.033L160.025 173.529L189.969 173.293L189.971 146.914L218.742 146.929L218.78 121.658Z"/>
	<path fill="#FEFEFE" transform="scale(0.371679 0.371679)" d="M1768.67 90.6755Q1816.61 90.0899 1864.55 90.303C1864.99 91.0878 1865.42 91.9294 1865.64 92.8065C1867.14 98.7125 1867.53 114.85 1864.52 119.924L1893.47 120.001C1894.09 120.929 1894.62 121.918 1894.84 123.023C1896 128.831 1896.54 141.961 1893.52 146.922L1924.33 146.896C1924.83 147.706 1925.31 148.551 1925.6 149.463C1927.27 154.718 1927.44 195.374 1924.75 200.06Q1941.19 199.996 1957.62 200.348C1958.15 201.3 1958.58 202.276 1958.85 203.334C1960.34 209.324 1960.2 244.528 1957.56 248.867C1967.64 248.833 1977.84 248.474 1987.89 249.21C1991.24 254.594 1990.65 274.954 1989.04 281.456C1988.92 281.945 1988.64 282.594 1988.47 283.036C1990.2 287.25 1990.27 297.358 1988.48 301.538C1988.21 302.183 1987.85 302.761 1987.46 303.336L1957.79 303.194C1960.45 308.07 1960.79 323.728 1958.93 329.137C1958.58 330.138 1957.97 331.027 1957.31 331.844C1929.69 333.426 1901.43 332.137 1873.74 332.305Q1776.38 333.278 1679.02 332.71C1653.64 332.767 1627.6 331.639 1602.29 333.091C1592.86 332.059 1582.96 334.257 1573.67 332.07C1573.96 331.443 1574.21 330.811 1574.42 330.149C1576.16 324.475 1576.08 308.653 1573.26 303.628C1564.13 303.684 1553.63 304.815 1544.76 302.775C1545.09 302.12 1545.22 301.92 1545.43 301.266C1547.2 295.715 1547.03 252.649 1544.55 247.341L1573.25 247.258C1573.63 246.699 1573.96 246.132 1574.23 245.51C1576.36 240.627 1575.58 225.99 1573.35 221.259L1602.46 221.042C1602.7 220.576 1602.95 220.117 1603.15 219.634C1605.46 214.039 1604.92 179.535 1602.55 174.195L1631.62 174.089C1632.2 173.166 1632.69 172.211 1632.99 171.163C1634.61 165.63 1634.55 152.078 1631.81 147.13C1640.98 147.078 1650.17 147.206 1659.35 147.255C1659.88 146.445 1660.35 145.592 1660.63 144.661C1662.27 139.211 1662.19 125.646 1659.44 120.769L1769.15 120.206C1769.56 119.546 1769.98 118.814 1770.18 118.057C1771.77 112.159 1771.79 95.721 1768.67 90.6755Z"/>
</svg>
